<svg width="8" height="7.5" viewBox="0 0 13 12" fill="none" xmlns="http://www.w3.org/2000/svg">
<path d="M6.5 12C5.59 12 4.73958 11.8425 3.94875 11.5275C3.15792 11.2125 2.47 10.785 1.885 10.245C1.3 9.705 0.839583 9.0675 0.50375 8.3325C0.167917 7.5975 0 6.81 0 5.97C0 5.13 0.167917 4.3475 0.50375 3.6225C0.839583 2.8975 1.3 2.265 1.885 1.725C2.47 1.185 3.15792 0.7625 3.94875 0.4575C4.73958 0.1525 5.59 0 6.5 0C7.41 0 8.26042 0.1525 9.05125 0.4575C9.84208 0.7625 10.53 1.185 11.115 1.725C11.7 2.265 12.1604 2.8975 12.4962 3.6225C12.8321 4.3475 13 5.13 13 5.97C13 6.81 12.8321 7.5975 12.4962 8.3325C12.1604 9.0675 11.7 9.705 11.115 10.245C10.53 10.785 9.84208 11.2125 9.05125 11.5275C8.26042 11.8425 7.41 12 6.5 12ZM6.5 11.13C6.87917 10.77 7.19604 10.3575 7.45062 9.8925C7.70521 9.4275 7.91375 8.875 8.07625 8.235H4.94C5.09167 8.835 5.29479 9.375 5.54937 9.855C5.80396 10.335 6.12083 10.76 6.5 11.13ZM5.11875 10.95C4.84792 10.57 4.615 10.16 4.42 9.72C4.225 9.28 4.0625 8.785 3.9325 8.235H1.495C1.90667 8.945 2.38333 9.5025 2.925 9.9075C3.46667 10.3125 4.19792 10.66 5.11875 10.95ZM7.8975 10.935C8.6775 10.705 9.37896 10.36 10.0019 9.9C10.6248 9.44 11.1258 8.885 11.505 8.235H9.08375C8.94292 8.775 8.77771 9.265 8.58812 9.705C8.39854 10.145 8.16833 10.555 7.8975 10.935ZM1.17 7.335H3.75375C3.72125 7.065 3.70229 6.8225 3.69687 6.6075C3.69146 6.3925 3.68875 6.18 3.68875 5.97C3.68875 5.72 3.69417 5.4975 3.705 5.3025C3.71583 5.1075 3.7375 4.89 3.77 4.65H1.17C1.09417 4.89 1.04271 5.105 1.01562 5.295C0.988542 5.485 0.975 5.71 0.975 5.97C0.975 6.23 0.988542 6.4625 1.01562 6.6675C1.04271 6.8725 1.09417 7.095 1.17 7.335ZM4.76125 7.335H8.255C8.29833 7.025 8.32542 6.7725 8.33625 6.5775C8.34708 6.3825 8.3525 6.18 8.3525 5.97C8.3525 5.77 8.34708 5.5775 8.33625 5.3925C8.32542 5.2075 8.29833 4.96 8.255 4.65H4.76125C4.71792 4.96 4.69083 5.2075 4.68 5.3925C4.66917 5.5775 4.66375 5.77 4.66375 5.97C4.66375 6.18 4.66917 6.3825 4.68 6.5775C4.69083 6.7725 4.71792 7.025 4.76125 7.335ZM9.23 7.335H11.83C11.9058 7.095 11.9573 6.8725 11.9844 6.6675C12.0115 6.4625 12.025 6.23 12.025 5.97C12.025 5.71 12.0115 5.485 11.9844 5.295C11.9573 5.105 11.9058 4.89 11.83 4.65H9.24625C9.27875 5 9.30042 5.2675 9.31125 5.4525C9.32208 5.6375 9.3275 5.81 9.3275 5.97C9.3275 6.19 9.31938 6.3975 9.30312 6.5925C9.28687 6.7875 9.2625 7.035 9.23 7.335ZM9.0675 3.75H11.505C11.1475 3.06 10.6573 2.485 10.0344 2.025C9.41146 1.565 8.69375 1.24 7.88125 1.05C8.15208 1.42 8.38229 1.82 8.57187 2.25C8.76146 2.68 8.92667 3.18 9.0675 3.75ZM4.94 3.75H8.0925C7.97333 3.22 7.77292 2.7075 7.49125 2.2125C7.20958 1.7175 6.87917 1.28 6.5 0.9C6.15333 1.17 5.86083 1.525 5.6225 1.965C5.38417 2.405 5.15667 3 4.94 3.75ZM1.495 3.75H3.94875C4.06792 3.21 4.21958 2.7275 4.40375 2.3025C4.58792 1.8775 4.82083 1.465 5.1025 1.065C4.29 1.255 3.58042 1.575 2.97375 2.025C2.36708 2.475 1.87417 3.05 1.495 3.75Z" fill="#979797"/>
</svg>
