<svg width="27" height="27" viewBox="0 0 27 27" fill="none" xmlns="http://www.w3.org/2000/svg">
<path id="Vector" d="M13.5 27C11.61 27 9.84375 26.6456 8.20125 25.9369C6.55875 25.2281 5.13 24.2663 3.915 23.0513C2.7 21.8363 1.74375 20.4019 1.04625 18.7481C0.34875 17.0944 0 15.3225 0 13.4325C0 11.5425 0.34875 9.78188 1.04625 8.15063C1.74375 6.51938 2.7 5.09625 3.915 3.88125C5.13 2.66625 6.55875 1.71563 8.20125 1.02938C9.84375 0.343125 11.61 0 13.5 0C15.39 0 17.1562 0.343125 18.7987 1.02938C20.4413 1.71563 21.87 2.66625 23.085 3.88125C24.3 5.09625 25.2563 6.51938 25.9538 8.15063C26.6513 9.78188 27 11.5425 27 13.4325C27 15.3225 26.6513 17.0944 25.9538 18.7481C25.2563 20.4019 24.3 21.8363 23.085 23.0513C21.87 24.2663 20.4413 25.2281 18.7987 25.9369C17.1562 26.6456 15.39 27 13.5 27ZM13.5 25.0425C14.2875 24.2325 14.9456 23.3044 15.4744 22.2581C16.0031 21.2119 16.4363 19.9688 16.7738 18.5288H10.26C10.575 19.8787 10.9969 21.0938 11.5256 22.1738C12.0544 23.2538 12.7125 24.21 13.5 25.0425ZM10.6313 24.6375C10.0688 23.7825 9.585 22.86 9.18 21.87C8.775 20.88 8.4375 19.7663 8.1675 18.5288H3.105C3.96 20.1263 4.95 21.3806 6.075 22.2919C7.2 23.2031 8.71875 23.985 10.6313 24.6375ZM16.4025 24.6038C18.0225 24.0863 19.4794 23.31 20.7731 22.275C22.0669 21.24 23.1075 19.9913 23.895 18.5288H18.8663C18.5738 19.7438 18.2306 20.8463 17.8369 21.8363C17.4431 22.8263 16.965 23.7488 16.4025 24.6038ZM2.43 16.5037H7.79625C7.72875 15.8963 7.68938 15.3506 7.67813 14.8669C7.66688 14.3831 7.66125 13.905 7.66125 13.4325C7.66125 12.87 7.6725 12.3694 7.695 11.9306C7.7175 11.4919 7.7625 11.0025 7.83 10.4625H2.43C2.2725 11.0025 2.16563 11.4863 2.10938 11.9138C2.05313 12.3413 2.025 12.8475 2.025 13.4325C2.025 14.0175 2.05313 14.5406 2.10938 15.0019C2.16563 15.4631 2.2725 15.9638 2.43 16.5037ZM9.88875 16.5037H17.145C17.235 15.8063 17.2913 15.2381 17.3138 14.7994C17.3363 14.3606 17.3475 13.905 17.3475 13.4325C17.3475 12.9825 17.3363 12.5494 17.3138 12.1331C17.2913 11.7169 17.235 11.16 17.145 10.4625H9.88875C9.79875 11.16 9.7425 11.7169 9.72 12.1331C9.6975 12.5494 9.68625 12.9825 9.68625 13.4325C9.68625 13.905 9.6975 14.3606 9.72 14.7994C9.7425 15.2381 9.79875 15.8063 9.88875 16.5037ZM19.17 16.5037H24.57C24.7275 15.9638 24.8344 15.4631 24.8906 15.0019C24.9469 14.5406 24.975 14.0175 24.975 13.4325C24.975 12.8475 24.9469 12.3413 24.8906 11.9138C24.8344 11.4863 24.7275 11.0025 24.57 10.4625H19.2038C19.2713 11.25 19.3162 11.8519 19.3388 12.2681C19.3612 12.6844 19.3725 13.0725 19.3725 13.4325C19.3725 13.9275 19.3556 14.3944 19.3219 14.8331C19.2881 15.2719 19.2375 15.8288 19.17 16.5037ZM18.8325 8.4375H23.895C23.1525 6.885 22.1344 5.59125 20.8406 4.55625C19.5469 3.52125 18.0563 2.79 16.3688 2.3625C16.9313 3.195 17.4094 4.095 17.8031 5.0625C18.1969 6.03 18.54 7.155 18.8325 8.4375ZM10.26 8.4375H16.8075C16.56 7.245 16.1438 6.09188 15.5588 4.97813C14.9738 3.86438 14.2875 2.88 13.5 2.025C12.78 2.6325 12.1725 3.43125 11.6775 4.42125C11.1825 5.41125 10.71 6.75 10.26 8.4375ZM3.105 8.4375H8.20125C8.44875 7.2225 8.76375 6.13688 9.14625 5.18063C9.52875 4.22438 10.0125 3.29625 10.5975 2.39625C8.91 2.82375 7.43625 3.54375 6.17625 4.55625C4.91625 5.56875 3.8925 6.8625 3.105 8.4375Z" fill="#414042"/>
</svg>
