<svg xmlns="http://www.w3.org/2000/svg" width="27" height="26" viewBox="0 0 27 26" fill="none">
<path fill-rule="evenodd" clip-rule="evenodd" d="M17.5454 10.5379C17.5454 14.2351 14.4841 17.2438 10.7222 17.2438C6.96031 17.2438 3.89901 14.2351 3.89901 10.5379C3.89901 6.84063 6.96031 3.83195 10.7222 3.83195C14.4841 3.83195 17.5454 6.84063 17.5454 10.5379ZM26.1877 23.0283L19.5557 16.5103C20.7894 14.759 21.4443 12.6634 21.4443 10.5379C21.4443 4.71509 16.6467 0 10.7221 0C4.79755 0 0 4.71509 0 10.5379C0 16.3606 4.79755 21.0757 10.7221 21.0757C12.8848 21.0757 15.0171 20.4321 16.799 19.2196L23.431 25.7226L26.1877 23.0283Z" fill="#515355"/>
</svg>
