<svg width="32" height="32" viewBox="0 0 32 32" fill="none" xmlns="http://www.w3.org/2000/svg">
<g id="&#240;&#159;&#166;&#134; icon &#34;instagram-alt&#34;">
<path id="Vector" d="M15.9795 12.032C15.1957 12.032 14.4295 12.2647 13.7778 12.7007C13.1261 13.1367 12.6182 13.7565 12.3182 14.4815C12.0183 15.2066 11.9398 16.0044 12.0927 16.7741C12.2456 17.5438 12.6231 18.2509 13.1773 18.8058C13.7315 19.3607 14.4376 19.7386 15.2064 19.8918C15.9751 20.0449 16.7719 19.9663 17.496 19.666C18.2202 19.3656 18.8391 18.857 19.2745 18.2045C19.71 17.552 19.9424 16.7848 19.9424 16C19.9424 15.4789 19.8399 14.9629 19.6407 14.4815C19.4416 14.0001 19.1497 13.5627 18.7817 13.1942C18.4137 12.8257 17.9768 12.5335 17.496 12.334C17.0152 12.1346 16.4999 12.032 15.9795 12.032ZM31.8471 8.112C31.8387 6.87641 31.6115 5.65211 31.176 4.496C30.8553 3.65002 30.359 2.88175 29.72 2.2419C29.0809 1.60204 28.3136 1.10515 27.4687 0.784C26.3141 0.347942 25.0914 0.120417 23.8574 0.112C21.796 -1.07288e-07 21.1888 0 15.9795 0C10.7702 0 10.163 -1.07288e-07 8.1016 0.112C6.8676 0.120417 5.64487 0.347942 4.49024 0.784C3.64534 1.10515 2.87806 1.60204 2.23902 2.2419C1.59999 2.88175 1.10373 3.65002 0.782995 4.496C0.347496 5.65211 0.120263 6.87641 0.111856 8.112C-1.07151e-07 10.176 0 10.784 0 16C0 21.216 -1.07151e-07 21.824 0.111856 23.888C0.129057 25.1279 0.355982 26.356 0.782995 27.52C1.10231 28.3621 1.59816 29.1259 2.23713 29.76C2.87342 30.4037 3.64235 30.9006 4.49024 31.216C5.64487 31.6521 6.8676 31.8796 8.1016 31.888C10.163 32 10.7702 32 15.9795 32C21.1888 32 21.796 32 23.8574 31.888C25.0914 31.8796 26.3141 31.6521 27.4687 31.216C28.3166 30.9006 29.0856 30.4037 29.7219 29.76C30.3608 29.1259 30.8567 28.3621 31.176 27.52C31.6111 26.3582 31.8383 25.1287 31.8471 23.888C31.959 21.824 31.959 21.216 31.959 16C31.959 10.784 31.959 10.176 31.8471 8.112ZM27.7883 20.912C27.7371 21.8994 27.5266 22.8719 27.1651 23.792C26.8549 24.5595 26.3938 25.2567 25.809 25.8422C25.2243 26.4276 24.528 26.8894 23.7615 27.2C22.8339 27.5418 21.8572 27.7309 20.8692 27.76C19.6068 27.76 19.2713 27.76 15.9795 27.76C12.6877 27.76 12.3521 27.76 11.0898 27.76C10.1018 27.7309 9.12507 27.5418 8.19748 27.2C7.40506 26.9051 6.68946 26.4348 6.10417 25.824C5.52518 25.25 5.07803 24.5566 4.79385 23.792C4.45118 22.8642 4.26749 21.8851 4.25055 20.896C4.25055 19.632 4.25055 19.296 4.25055 16C4.25055 12.704 4.25055 12.368 4.25055 11.104C4.26749 10.1149 4.45118 9.13582 4.79385 8.208C5.08832 7.41457 5.55811 6.69804 6.16808 6.112C6.74388 5.5354 7.43568 5.08815 8.19748 4.8C9.12507 4.45825 10.1018 4.26914 11.0898 4.24H15.9795C15.9795 4.24 19.6068 4.24 20.8692 4.24C21.8572 4.26914 22.8339 4.45825 23.7615 4.8C24.5539 5.09485 25.2695 5.56524 25.8548 6.176C26.4338 6.75 26.881 7.44341 27.1651 8.208C27.5065 9.13678 27.6953 10.1148 27.7244 11.104V16C27.7244 16 27.8363 19.632 27.7883 20.896V20.912ZM25.2316 9.008C25.0414 8.49117 24.7414 8.02183 24.3524 7.63234C23.9634 7.24286 23.4947 6.9425 22.9785 6.752C22.2698 6.50602 21.5233 6.38687 20.7733 6.4C19.5269 6.4 19.1754 6.4 15.9795 6.4C12.7836 6.4 12.432 6.4 11.1856 6.4C10.4318 6.40738 9.68528 6.54821 8.98047 6.816C8.47221 6.99785 8.00843 7.28594 7.61996 7.66112C7.23148 8.0363 6.92721 8.48998 6.72737 8.992C6.49531 9.70459 6.38194 10.4506 6.3918 11.2V16C6.3918 16 6.3918 19.552 6.3918 20.8C6.40764 21.5539 6.54803 22.3 6.80726 23.008C6.99752 23.5248 7.29749 23.9942 7.68648 24.3837C8.07546 24.7731 8.54421 25.0735 9.06037 25.264C9.74216 25.5151 10.4596 25.6555 11.1856 25.68H15.9795C15.9795 25.68 19.5269 25.68 20.7733 25.68C21.5271 25.6726 22.2737 25.5318 22.9785 25.264C23.4947 25.0735 23.9634 24.7731 24.3524 24.3837C24.7414 23.9942 25.0414 23.5248 25.2316 23.008C25.4991 22.3023 25.6397 21.5548 25.6471 20.8C25.6471 19.552 25.6471 19.2 25.6471 16C25.6471 12.8 25.6471 12.448 25.6471 11.2C25.6475 10.4445 25.5066 9.69556 25.2316 8.992V9.008ZM15.9795 22.112C15.1786 22.112 14.3856 21.9538 13.6459 21.6464C12.9063 21.3391 12.2344 20.8886 11.6688 20.3209C11.1033 19.7531 10.6552 19.0792 10.3501 18.3378C10.0451 17.5963 9.8892 16.8019 9.8913 16C9.89131 14.7905 10.2497 13.6082 10.9212 12.6027C11.5926 11.5972 12.5469 10.8139 13.6632 10.3517C14.7795 9.8896 16.0077 9.76951 17.1922 10.0066C18.3768 10.2438 19.4644 10.8275 20.3174 11.6839C21.1705 12.5402 21.7506 13.6308 21.9843 14.8174C22.218 16.0041 22.0948 17.2335 21.6304 18.3501C21.1659 19.4666 20.3811 20.4201 19.3751 21.0897C18.3692 21.7594 17.1875 22.1152 15.9795 22.112ZM22.3713 11.088C22.0181 11.0506 21.6911 10.8836 21.4536 10.6192C21.216 10.3548 21.0845 10.0117 21.0845 9.656C21.0845 9.30033 21.216 8.95725 21.4536 8.69285C21.6911 8.42845 22.0181 8.26144 22.3713 8.224C22.7245 8.26144 23.0514 8.42845 23.289 8.69285C23.5266 8.95725 23.6581 9.30033 23.6581 9.656C23.6581 10.0117 23.5266 10.3548 23.289 10.6192C23.0514 10.8836 22.7245 11.0506 22.3713 11.088Z" fill="#E9F88D"/>
</g>
</svg>
