<svg width="32" height="32" viewBox="0 0 32 32" fill="none" xmlns="http://www.w3.org/2000/svg">
<g id="&#240;&#159;&#166;&#134; icon &#34;facebook&#34;">
<path id="Vector" d="M30.2012 0H1.75774C1.29156 0 0.844473 0.185428 0.514832 0.515492C0.185191 0.845556 0 1.29322 0 1.76V30.24C0 30.7068 0.185191 31.1544 0.514832 31.4845C0.844473 31.8146 1.29156 32 1.75774 32H17.0661V19.6H12.9114V14.8H17.0661V11.2C16.98 10.3548 17.0797 9.501 17.3581 8.69846C17.6364 7.89592 18.0868 7.16407 18.6776 6.55426C19.2683 5.94444 19.9852 5.47143 20.7779 5.16838C21.5705 4.86534 22.4198 4.7396 23.2661 4.8C24.5099 4.79234 25.753 4.85644 26.9894 4.992V9.312H24.4486C22.4352 9.312 22.0517 10.272 22.0517 11.664V14.752H26.8455L26.2223 19.552H22.0517V32H30.2012C30.4321 32 30.6606 31.9545 30.8739 31.866C31.0872 31.7776 31.2809 31.6479 31.4442 31.4845C31.6074 31.3211 31.7369 31.1271 31.8252 30.9135C31.9135 30.7 31.959 30.4711 31.959 30.24V1.76C31.959 1.52887 31.9135 1.30001 31.8252 1.08648C31.7369 0.872944 31.6074 0.678923 31.4442 0.515492C31.2809 0.352061 31.0872 0.22242 30.8739 0.133972C30.6606 0.0455239 30.4321 0 30.2012 0Z" fill="#E9F88D"/>
</g>
</svg>
