<svg width="32" height="27" viewBox="0 0 32 27" fill="none" xmlns="http://www.w3.org/2000/svg">
<g id="&#240;&#159;&#166;&#134; icon &#34;twitter&#34;">
<path id="Vector" d="M31.959 3.07665C30.7625 3.60791 29.4932 3.95648 28.1934 4.11073C29.5625 3.29048 30.5871 1.99975 31.0762 0.479084C29.7892 1.24446 28.3807 1.78328 26.9119 2.07214C26.0121 1.11253 24.8451 0.445796 23.5622 0.158426C22.2793 -0.128945 20.9398 -0.0236917 19.7174 0.460532C18.495 0.944757 17.4461 1.78561 16.7068 2.87401C15.9675 3.96241 15.5719 5.24815 15.5713 6.56443C15.5707 7.06802 15.6274 7.57003 15.7402 8.0608C13.1334 7.93 10.5832 7.25178 8.25521 6.07018C5.92718 4.88858 3.87333 3.23 2.22697 1.20211C1.38864 2.64731 1.13178 4.35804 1.50866 5.98617C1.88554 7.61429 2.86785 9.03745 4.25566 9.96601C3.21442 9.93372 2.19602 9.65232 1.28561 9.14532V9.22828C1.28582 10.744 1.80959 12.2129 2.7681 13.3861C3.72662 14.5592 5.06087 15.3642 6.54458 15.6647C5.98166 15.8184 5.40068 15.8958 4.81719 15.8948C4.40311 15.8948 3.98993 15.8561 3.58303 15.7792C4.00203 17.0833 4.81748 18.2236 5.9154 19.0409C7.01332 19.8582 8.33884 20.3116 9.70669 20.3378C6.95739 22.4933 3.46716 23.4704 0 23.0552C2.99746 24.9847 6.48644 26.0091 10.0499 26.0059C12.5042 26.0228 14.9374 25.5512 17.2082 24.6186C19.479 23.6859 21.542 22.3108 23.2775 20.5731C25.013 18.8353 26.3864 16.7696 27.3179 14.496C28.2493 12.2223 28.7203 9.78593 28.7034 7.32846C28.7034 7.04366 28.6967 6.76063 28.6834 6.47936C29.9683 5.54878 31.0775 4.39657 31.959 3.07665Z" fill="#E9F88D"/>
</g>
</svg>
